<?xml version="1.0" standalone="no"?>
<!DOCTYPE svg PUBLIC "-//W3C//DTD SVG 20010904//EN"
 "http://www.w3.org/TR/2001/REC-SVG-20010904/DTD/svg10.dtd">
<svg version="1.0" xmlns="http://www.w3.org/2000/svg"
 width="1128.000000pt" height="1128.000000pt" viewBox="0 0 1128.000000 1128.000000"
 preserveAspectRatio="xMidYMid meet">

<g transform="translate(0.000000,1128.000000) scale(0.100000,-0.100000)"
fill="#000000" stroke="none">
<path d="M5630 6760 c-200 -8 -267 -19 -388 -62 -275 -96 -474 -307 -542 -574
-24 -94 -25 -136 -3 -203 33 -105 123 -173 253 -191 89 -13 2047 -12 2147 0
88 11 157 44 206 99 68 75 86 149 62 259 -66 315 -308 550 -655 636 -164 41
-598 55 -1080 36z m1060 -76 c162 -29 342 -160 460 -334 63 -92 111 -200 90
-200 -5 0 -43 43 -85 95 -113 140 -254 262 -400 347 -94 55 -137 87 -129 99 3
6 13 7 23 4 9 -4 27 -9 41 -11z m-1117 -214 c161 -60 236 -235 164 -382 -87
-177 -294 -220 -446 -92 -51 42 -83 107 -88 177 -6 75 7 128 46 188 36 54 77
86 145 110 66 24 113 24 179 -1z m1086 -10 c59 -26 115 -83 143 -148 29 -64
21 -178 -15 -242 -57 -99 -135 -145 -247 -145 -122 1 -208 56 -258 165 -69
148 11 325 172 382 63 23 133 18 205 -12z"/>
<path d="M5408 6428 c-49 -13 -116 -72 -139 -122 -25 -56 -25 -155 0 -204 29
-56 118 -131 140 -118 5 4 12 2 16 -4 13 -21 109 -11 166 18 78 39 112 92 117
183 6 91 -15 146 -74 198 -63 55 -140 72 -226 49z m197 -103 c31 -30 33 -82 4
-119 -27 -34 -91 -37 -126 -4 -54 51 -14 148 62 148 25 0 44 -8 60 -25z m-245
-251 c0 -9 -7 -14 -17 -12 -25 5 -28 28 -4 28 12 0 21 -6 21 -16z m104 -20
c23 -9 21 -60 -3 -67 -43 -11 -71 40 -33 62 21 13 17 12 36 5z"/>
<path d="M6467 6428 c-61 -16 -131 -87 -152 -154 -28 -90 -10 -168 56 -233 48
-49 100 -71 164 -71 262 0 326 353 82 455 -41 17 -93 18 -150 3z m197 -104
c32 -33 34 -81 5 -118 -40 -51 -138 -27 -155 38 -6 25 7 57 34 89 24 27 84 22
116 -9z m-253 -249 c-1 -15 -24 -12 -29 3 -3 9 2 13 12 10 10 -1 17 -7 17 -13z
m117 -27 c18 -18 14 -46 -9 -58 -26 -14 -49 3 -49 35 0 21 8 27 41 34 3 0 10
-4 17 -11z"/>
<path d="M5845 5420 c22 -4 49 -4 60 1 13 5 0 8 -40 7 -56 0 -58 -1 -20 -8z"/>
<path d="M5855 5370 c3 -5 8 -10 11 -10 2 0 4 5 4 10 0 6 -5 10 -11 10 -5 0
-7 -4 -4 -10z"/>
</g>
</svg>
